<svg width="135" height="167" viewBox="0 0 135 167" fill="none" xmlns="http://www.w3.org/2000/svg">
<path d="M50.2576 58.5764V139.396L68.0302 122.928V72.7641L94.9431 98.3527V127.488L110.431 142.689V94.0457L77.9322 64.4035V34.7613L50.2576 58.5764Z" fill="#5AA469"/>
<path fill-rule="evenodd" clip-rule="evenodd" d="M27.451 55.9946C23.9664 59.1826 16.8366 65.7017 16.1942 66.2746L17.107 72.6696L29.9464 84.0473L42.1605 74.836L39.8402 66.332L28.5143 73.3094L92.6752 17.4875L91.7507 33.9718L88.2018 33.7728L89.946 38.9456L92.7344 39.102L92.5358 42.6434C102.365 44.2097 91.6581 53.7593 90.6053 45.3264C88.8456 47.8362 91.0537 50.9341 94.0956 51.1047C97.5286 51.2972 102.084 44.7014 95.6771 41.0433L95.7764 39.2726L98.5648 39.429L101.384 34.512L97.5811 34.2988L98.824 12.1378L105.507 6.32306L104.579 4.74845L97.3955 5.86812L36.435 59.036L27.451 55.9946ZM93.2717 34.0571L94.2792 16.0919L96.7395 13.9514L95.6046 34.1879L93.2717 34.0571Z" fill="#5AA469"/>
<path fill-rule="evenodd" clip-rule="evenodd" d="M47.9725 75.0443L46.9569 76.0711V142.183L47.9725 141.169V75.0443Z" fill="#5AA469"/>
<path fill-rule="evenodd" clip-rule="evenodd" d="M45.9412 76.5644L44.9257 77.6119V144.463L45.9412 143.449V76.5644Z" fill="#5AA469"/>
<path fill-rule="evenodd" clip-rule="evenodd" d="M43.9101 78.0846L42.8945 79.1605V146.49L43.9101 145.476V78.0846Z" fill="#5AA469"/>
<path d="M103.322 52.2426L115.001 62.8834V90.7522L103.322 80.6181V52.2426Z" fill="#171717"/>
<path fill-rule="evenodd" clip-rule="evenodd" d="M93.6736 61.0328L103.322 52.2426V57.3096L93.6736 65.6813V61.0328Z" fill="#171717"/>
<path fill-rule="evenodd" clip-rule="evenodd" d="M103.322 59.8432L93.6736 68.6334V72.0041L94.3806 72.6683L103.322 64.9102V59.8432Z" fill="#171717"/>
<path fill-rule="evenodd" clip-rule="evenodd" d="M103.322 67.4438L95.9586 74.1521L98.6941 76.5261L103.322 72.5108V67.4438Z" fill="#171717"/>
<path d="M78.1873 125.715L30.7075 157.131H41.8198V154.09L78.1873 135.342L114.555 154.09V157.131H126.172L78.1873 125.715Z" fill="#171717"/>
<path d="M72.3464 140.409L77.4243 139.396V144.463H72.3464V140.409Z" fill="#171717"/>
<path d="M78.4398 139.396L83.5177 140.409V144.463H78.4398V139.396Z" fill="#171717"/>
<rect x="72.3464" y="145.476" width="5.07791" height="5.06705" fill="#171717"/>
<rect x="78.4398" y="145.476" width="5.07791" height="5.06705" fill="#171717"/>
<path d="M134.935 166.756C134.935 167.895 109.106 160.57 77.2454 160.57C45.3843 160.57 19.5558 167.895 19.5558 166.756C19.5558 165.617 45.3843 156.446 77.2454 156.446C109.106 156.446 134.935 165.617 134.935 166.756Z" fill="#171717"/>
<path d="M43.1847 13.9064C58.1717 6.01245 75.2215 3.02843 91.9276 5.30026L88.1096 8.66365C73.253 7.29111 61.8045 10.2403 48.5053 17.2452C32.7551 25.5412 20.8711 39.0155 13.9374 55.3851C7.00373 71.7546 5.95452 90.0128 10.9676 107.066C15.9806 124.119 22.6853 138.919 37.382 148.957L37.2084 149.21L34.114 151.286C19.2757 140.776 8.40401 125.577 3.27474 108.129C-1.98398 90.2399 -0.883353 71.087 6.39012 53.9152C13.6636 36.7435 26.6626 22.6089 43.1847 13.9064Z" fill="#171717"/>
</svg>
