<svg width="41" height="41" viewBox="0 0 41 41" fill="none" xmlns="http://www.w3.org/2000/svg">
<circle cx="20.5" cy="20.5" r="20.5" fill="#5AA469"/>
<path d="M16.0562 14.721V30.8929L19.6124 27.5977V17.56L24.9977 22.6802V28.5102L28.0967 31.5519V21.8184L21.5938 15.887V9.95563L16.0562 14.721Z" fill="white"/>
<path fill-rule="evenodd" clip-rule="evenodd" d="M11.4931 14.2045C10.7958 14.8424 9.36917 16.1468 9.24062 16.2615L9.42328 17.5411L11.9924 19.8178L14.4364 17.9746L13.9722 16.273L11.7059 17.6691L24.5444 6.49922L24.3594 9.79772L23.6493 9.75789L23.9983 10.793L24.5562 10.8243L24.5165 11.5329C26.4834 11.8463 24.3409 13.7572 24.1302 12.0698C23.7781 12.572 24.2199 13.1919 24.8286 13.226C25.5156 13.2645 26.427 11.9447 25.1451 11.2127L25.1649 10.8584L25.7229 10.8897L26.2869 9.90582L25.526 9.86315L25.7747 5.42877L27.1121 4.26524L26.9262 3.95016L25.4889 4.1742L13.2908 14.813L11.4931 14.2045ZM24.6637 9.81479L24.8654 6.21997L25.3576 5.79166L25.1305 9.84097L24.6637 9.81479Z" fill="white"/>
<path fill-rule="evenodd" clip-rule="evenodd" d="M15.5997 18.0163L15.3965 18.2217V31.4506L15.5997 31.2478V18.0163Z" fill="white"/>
<path fill-rule="evenodd" clip-rule="evenodd" d="M15.1935 18.3205L14.9902 18.5301V31.9069L15.1935 31.7041V18.3205Z" fill="white"/>
<path fill-rule="evenodd" clip-rule="evenodd" d="M14.7862 18.6246L14.583 18.8399V32.3124L14.7862 32.1096V18.6246Z" fill="white"/>
<path d="M26.6748 13.4536L29.0118 15.5828V21.1593L26.6748 19.1315V13.4536Z" fill="#171717"/>
<path fill-rule="evenodd" clip-rule="evenodd" d="M24.7441 15.2125L26.6747 13.4536V14.4675L24.7441 16.1426V15.2125Z" fill="#171717"/>
<path fill-rule="evenodd" clip-rule="evenodd" d="M26.6747 14.9745L24.7441 16.7335V17.4079L24.8856 17.5409L26.6747 15.9885V14.9745Z" fill="#171717"/>
<path fill-rule="evenodd" clip-rule="evenodd" d="M26.675 16.4954L25.2017 17.8378L25.749 18.3128L26.675 17.5093V16.4954Z" fill="#171717"/>
<path d="M21.6447 28.1555L12.144 34.4417H14.3676V33.8334L21.6447 30.0819L28.9218 33.8334V34.4417H31.2464L21.6447 28.1555Z" fill="#171717"/>
<path d="M20.4761 31.0957L21.4922 30.8929V31.9069H20.4761V31.0957Z" fill="#171717"/>
<path d="M21.6958 30.8929L22.7119 31.0957V31.9069H21.6958V30.8929Z" fill="#171717"/>
<rect x="20.4761" y="32.1097" width="1.01608" height="1.01391" fill="#171717"/>
<rect x="21.6958" y="32.1097" width="1.01608" height="1.01391" fill="#171717"/>
<path d="M32.9998 36.3677C32.9998 36.5956 27.8316 35.13 21.4562 35.13C15.0809 35.13 9.9126 36.5956 9.9126 36.3677C9.9126 36.1399 15.0809 34.3048 21.4562 34.3048C27.8316 34.3048 32.9998 36.1399 32.9998 36.3677Z" fill="#171717"/>
<path d="M14.6412 5.78257C17.6401 4.203 21.0517 3.6059 24.3946 4.06049L23.6306 4.7335C20.6578 4.45886 18.367 5.04899 15.7059 6.45067C12.5543 8.11068 10.1763 10.8069 8.78886 14.0824C7.40144 17.3579 7.19149 21.0114 8.1946 24.4237C9.19771 27.836 10.5393 30.7974 13.4801 32.806L13.4454 32.8566L12.8262 33.272C9.85705 31.1691 7.68163 28.1278 6.65527 24.6363C5.60301 21.0568 5.82324 17.2243 7.27866 13.7883C8.73407 10.3522 11.3352 7.52393 14.6412 5.78257Z" fill="#171717"/>
</svg>
